<svg width="460" height="66" viewBox="0 0 460 66" fill="none" xmlns="http://www.w3.org/2000/svg">
<path d="M51 2L31.72 52.85L12.42 2H0V63.76H8.33V14.24L8.17 11.9H8.33L28.39 63.76H35.06L55.06 11.9H55.31L55.06 14.24V63.76H63.39V2H51Z" fill="#FAB51C"/>
<path d="M86.7299 56.7696V35.3796H119.13V28.3796H86.7299V8.99961H122.44V1.99961H78.4399V63.7596H123.49V56.7596L86.7299 56.7696ZM179.52 60.9996C179.18 59.8779 178.976 58.7197 178.91 57.5496C178.82 56.1896 178.72 53.9196 178.63 50.7196C178.587 48.1354 178.376 45.5567 178 42.9996C177.658 41.0639 176.817 39.2509 175.56 37.7396C173.995 35.9999 171.948 34.7643 169.68 34.1896V33.9396C172.76 33.1608 175.444 31.2738 177.22 28.6396C179.238 25.7032 180.271 22.2013 180.17 18.6396C180.17 13.7596 178.977 10.0929 176.59 7.63961C174.466 5.32433 171.691 3.70664 168.63 2.99961C165.731 2.34975 162.771 2.01447 159.8 1.99961H132.42V63.7596H140.75V37.5496H158.41C161.863 37.5496 164.423 38.1463 166.09 39.3396C167.69 40.4401 168.815 42.1046 169.24 43.9996C169.743 46.5499 170.014 49.1405 170.05 51.7396C170.057 54.4296 170.214 57.1171 170.52 59.7896C170.773 61.2514 171.389 62.6265 172.31 63.7896H181C180.349 62.9519 179.849 62.008 179.52 60.9996V60.9996ZM168.89 27.1296C167.123 29.4696 163.907 30.6396 159.24 30.6396H140.75V8.99961H158C162.54 8.99961 165.937 9.80628 168.19 11.4196C170.45 13.0296 171.57 15.7196 171.57 19.4796C171.559 22.2578 170.615 24.9518 168.89 27.1296V27.1296ZM220 31.5596V38.5596H237.66C237.62 41.7981 236.972 45.0002 235.75 47.9996C234.518 51.0585 232.41 53.6852 229.69 55.5496C226.89 57.5496 223.293 58.5496 218.9 58.5496C213.32 58.5496 208.963 57.0463 205.83 54.0396C202.809 51.2227 200.617 47.6331 199.49 43.6596C198.444 40.0575 197.893 36.3302 197.85 32.5796C197.868 30.1824 198.059 27.7895 198.42 25.4196C198.859 22.5584 199.729 19.7802 201 17.1796C202.454 14.2133 204.683 11.6947 207.45 9.88961C210.39 7.88961 214.22 6.88961 218.94 6.88961C224.94 6.88961 229.15 8.26961 231.69 11.0496C234.089 13.5559 235.609 16.7743 236.02 20.2196H244.43C244.134 17.706 243.46 15.2516 242.43 12.9396C241.334 10.513 239.79 8.3147 237.88 6.45961C235.684 4.36676 233.07 2.76169 230.21 1.74961C226.657 0.510643 222.912 -0.0820474 219.15 -0.000390323C214.662 -0.0910947 210.198 0.67948 206 2.26961C202.393 3.67498 199.166 5.90834 196.58 8.78961C193.997 11.7558 192.071 15.2355 190.93 18.9996C189.615 23.3085 188.974 27.7948 189.03 32.2996C188.944 37.2231 189.677 42.1267 191.2 46.8096C192.448 50.6859 194.519 54.2471 197.27 57.2496C199.835 59.987 202.987 62.1068 206.49 63.4496C210.165 64.8477 214.068 65.5464 218 65.5096C220.877 65.5251 223.739 65.0863 226.48 64.2096C229.102 63.3795 231.535 62.0407 233.64 60.2696C235.735 58.4882 237.414 56.2695 238.56 53.7696H238.81V63.7696H245.21V31.5596H220ZM381.52 1.99961H356.37V63.7596H364.71V39.1296H380.78C384.296 39.2119 387.801 38.7049 391.15 37.6296C393.705 36.8176 396.025 35.3968 397.91 33.4896C399.541 31.7538 400.752 29.6669 401.45 27.3896C402.176 24.902 402.53 22.3208 402.5 19.7296C402.5 7.90961 395.507 1.99961 381.52 1.99961ZM390.81 28.8696C388.683 31.0496 385.037 32.1363 379.87 32.1296H364.71V8.99961H379.87C384.44 8.99961 387.95 9.83961 390.37 11.5096C392.79 13.1796 394 15.9996 394 19.8896C394 23.7796 392.94 26.7096 390.81 28.8796V28.8696ZM455.63 36.0796C453.436 33.6148 450.637 31.7641 447.51 30.7096C443.569 29.514 439.563 28.549 435.51 27.8196C431.67 27.0396 428.83 26.3729 426.99 25.8196C425.17 25.2686 423.504 24.3033 422.12 22.9996C421.396 22.2843 420.832 21.423 420.467 20.4729C420.101 19.5229 419.942 18.5059 420 17.4896C419.984 15.5926 420.572 13.7397 421.68 12.1996C422.95 10.4962 424.687 9.19715 426.68 8.45961C429.204 7.4876 431.896 7.02208 434.6 7.08961C439.747 7.08961 443.44 8.17628 445.68 10.3496C447.839 12.3659 449.169 15.115 449.41 18.0596H457.41C457.195 14.9718 456.282 11.9731 454.74 9.28961C453.006 6.41667 450.468 4.11508 447.44 2.66961C444.093 0.956276 439.877 0.0996097 434.79 0.0996097C429.243 0.0996097 424.73 0.92961 421.25 2.58961C418.143 3.92706 415.526 6.19433 413.76 9.07961C412.239 11.7679 411.455 14.8108 411.49 17.8996C411.356 20.8919 412.13 23.8548 413.71 26.3996C415.157 28.5667 417.17 30.296 419.53 31.3996C422.32 32.6618 425.241 33.611 428.24 34.2296C431.647 34.9829 434.887 35.6763 437.96 36.3096C440.016 36.7528 442.035 37.3512 444 38.0996C445.739 38.8006 447.283 39.9123 448.5 41.3396C449.845 42.9875 450.533 45.0749 450.43 47.1996C450.384 50.0647 449.234 52.8017 447.22 54.8396C445.08 57.1863 441.08 58.3596 435.22 58.3596C431.842 58.4651 428.486 57.7803 425.42 56.3596C423.025 55.2472 421.021 53.4385 419.67 51.1696C418.451 49.0392 417.816 46.6243 417.83 44.1696H409.35C409.93 58.2696 418.417 65.3196 434.81 65.3196C444.297 65.3196 450.747 63.4196 454.16 59.6196C457.405 56.2161 459.23 51.7023 459.26 46.9996C459.26 42.3329 458.05 38.6929 455.63 36.0796V36.0796Z" fill="white"/>
<path d="M343 19.3375C341.825 15.5255 339.863 12.0028 337.24 8.99752C334.699 6.14208 331.538 3.90515 328 2.45752C324.009 0.8724 319.743 0.0973457 315.45 0.177516C311.606 0.118674 307.781 0.734678 304.15 1.99752H257.84V63.7575H304C307.696 65.0232 311.583 65.6422 315.49 65.5875C319.766 65.6553 324.015 64.8911 328 63.3375C331.571 61.9134 334.756 59.6697 337.3 56.7875C339.897 53.7776 341.838 50.2595 343 46.4575C344.342 42.0579 344.993 37.4768 344.93 32.8775C345 28.291 344.349 23.7219 343 19.3375V19.3375ZM293.74 8.99752L293.69 9.04752C291.073 12.0641 289.111 15.5921 287.93 19.4075C287.006 22.3312 286.419 25.3507 286.18 28.4075H266.18V8.99752H293.74ZM266.17 56.7675V35.3775H286C286.143 40.5247 287.284 45.5952 289.36 50.3075C290.434 52.6492 291.838 54.8246 293.53 56.7675H266.17ZM333.83 46.3475C332.488 49.9789 330.075 53.1173 326.91 55.3475C324.52 56.9692 321.777 57.9976 318.91 58.3475C317.769 58.4937 316.62 58.5672 315.47 58.5675C312.273 58.6513 309.097 58.0263 306.17 56.7375C305.096 56.2291 304.089 55.591 303.17 54.8375C300.104 52.38 297.849 49.0555 296.7 45.2975C295.683 42.0711 295.088 38.7267 294.93 35.3475H315.49V28.3475H295C295.42 23.2542 296.59 19.2175 298.51 16.2375C300.883 12.5708 303.517 10.1475 306.41 8.96752L306.76 8.82752C309.543 7.74945 312.496 7.17713 315.48 7.13752C316.632 7.13917 317.781 7.22607 318.92 7.39752C320.157 7.58443 321.378 7.86864 322.57 8.24752C325.03 9.05061 327.284 10.3855 329.17 12.1575C331.438 14.3741 333.151 17.0944 334.17 20.0975C335.565 24.1992 336.219 28.5166 336.1 32.8475C336.19 37.4495 335.42 42.0279 333.83 46.3475V46.3475Z" fill="#FAB51C"/>
</svg>
