<svg width="524" height="524" viewBox="0 0 524 524" fill="none" xmlns="http://www.w3.org/2000/svg">
<circle cx="262" cy="262" r="262" fill="#061729"/>
<g clip-path="url(#clip0_386_16)">
<path d="M83 231L63.72 281.85L44.42 231H32V292.76H40.33V243.24L40.17 240.9H40.33L60.39 292.76H67.06L87.06 240.9H87.31L87.06 243.24V292.76H95.39V231H83Z" fill="#FAB51C"/>
<path d="M118.73 285.77V264.38H151.13V257.38H118.73V238H154.44V231H110.44V292.76H155.49V285.76L118.73 285.77ZM211.52 290C211.18 288.878 210.976 287.72 210.91 286.55C210.82 285.19 210.72 282.92 210.63 279.72C210.587 277.135 210.376 274.557 210 272C209.658 270.064 208.817 268.251 207.56 266.74C205.995 265 203.948 263.764 201.68 263.19V262.94C204.76 262.161 207.444 260.274 209.22 257.64C211.238 254.703 212.271 251.201 212.17 247.64C212.17 242.76 210.977 239.093 208.59 236.64C206.466 234.324 203.691 232.707 200.63 232C197.731 231.35 194.771 231.014 191.8 231H164.42V292.76H172.75V266.55H190.41C193.863 266.55 196.423 267.146 198.09 268.34C199.69 269.44 200.815 271.105 201.24 273C201.743 275.55 202.014 278.141 202.05 280.74C202.057 283.43 202.214 286.117 202.52 288.79C202.773 290.251 203.389 291.627 204.31 292.79H213C212.349 291.952 211.849 291.008 211.52 290ZM200.89 256.13C199.123 258.47 195.907 259.64 191.24 259.64H172.75V238H190C194.54 238 197.937 238.806 200.19 240.42C202.45 242.03 203.57 244.72 203.57 248.48C203.559 251.258 202.615 253.952 200.89 256.13ZM252 260.56V267.56H269.66C269.62 270.798 268.972 274 267.75 277C266.518 280.058 264.41 282.685 261.69 284.55C258.89 286.55 255.293 287.55 250.9 287.55C245.32 287.55 240.963 286.046 237.83 283.04C234.809 280.223 232.617 276.633 231.49 272.66C230.444 269.057 229.893 265.33 229.85 261.58C229.868 259.182 230.059 256.789 230.42 254.42C230.859 251.558 231.729 248.78 233 246.18C234.454 243.213 236.683 240.695 239.45 238.89C242.39 236.89 246.22 235.89 250.94 235.89C256.94 235.89 261.15 237.27 263.69 240.05C266.089 242.556 267.609 245.774 268.02 249.22H276.43C276.134 246.706 275.46 244.252 274.43 241.94C273.334 239.513 271.79 237.315 269.88 235.46C267.684 233.367 265.07 231.762 262.21 230.75C258.657 229.511 254.912 228.918 251.15 229C246.662 228.909 242.198 229.679 238 231.27C234.393 232.675 231.166 234.908 228.58 237.79C225.997 240.756 224.071 244.235 222.93 248C221.615 252.308 220.974 256.795 221.03 261.3C220.944 266.223 221.677 271.127 223.2 275.81C224.448 279.686 226.519 283.247 229.27 286.25C231.835 288.987 234.987 291.107 238.49 292.45C242.165 293.848 246.068 294.546 250 294.51C252.877 294.525 255.739 294.086 258.48 293.21C261.102 292.38 263.535 291.041 265.64 289.27C267.735 287.488 269.414 285.27 270.56 282.77H270.81V292.77H277.21V260.56H252ZM413.52 231H388.37V292.76H396.71V268.13H412.78C416.296 268.212 419.801 267.705 423.15 266.63C425.705 265.818 428.025 264.397 429.91 262.49C431.541 260.754 432.752 258.667 433.45 256.39C434.176 253.902 434.53 251.321 434.5 248.73C434.5 236.91 427.507 231 413.52 231ZM422.81 257.87C420.683 260.05 417.037 261.136 411.87 261.13H396.71V238H411.87C416.44 238 419.95 238.84 422.37 240.51C424.79 242.18 426 245 426 248.89C426 252.78 424.94 255.71 422.81 257.88V257.87ZM487.63 265.08C485.436 262.615 482.637 260.764 479.51 259.71C475.569 258.514 471.563 257.549 467.51 256.82C463.67 256.04 460.83 255.373 458.99 254.82C457.17 254.269 455.504 253.303 454.12 252C453.396 251.284 452.832 250.423 452.467 249.473C452.101 248.523 451.942 247.506 452 246.49C451.984 244.593 452.572 242.74 453.68 241.2C454.95 239.496 456.687 238.197 458.68 237.46C461.204 236.488 463.896 236.022 466.6 236.09C471.747 236.09 475.44 237.176 477.68 239.35C479.839 241.366 481.169 244.115 481.41 247.06H489.41C489.195 243.972 488.282 240.973 486.74 238.29C485.006 235.417 482.468 233.115 479.44 231.67C476.093 229.956 471.877 229.1 466.79 229.1C461.243 229.1 456.73 229.93 453.25 231.59C450.143 232.927 447.526 235.194 445.76 238.08C444.239 240.768 443.455 243.811 443.49 246.9C443.356 249.892 444.13 252.855 445.71 255.4C447.157 257.567 449.17 259.296 451.53 260.4C454.32 261.662 457.241 262.611 460.24 263.23C463.647 263.983 466.887 264.676 469.96 265.31C472.016 265.753 474.035 266.351 476 267.1C477.739 267.801 479.283 268.912 480.5 270.34C481.845 271.987 482.533 274.075 482.43 276.2C482.384 279.065 481.234 281.802 479.22 283.84C477.08 286.186 473.08 287.36 467.22 287.36C463.842 287.465 460.486 286.78 457.42 285.36C455.025 284.247 453.021 282.439 451.67 280.17C450.451 278.039 449.816 275.624 449.83 273.17H441.35C441.93 287.27 450.417 294.32 466.81 294.32C476.297 294.32 482.747 292.42 486.16 288.62C489.405 285.216 491.23 280.702 491.26 276C491.26 271.333 490.05 267.693 487.63 265.08Z" fill="white"/>
<path d="M375 248.337C373.825 244.525 371.863 241.003 369.24 237.998C366.699 235.142 363.538 232.905 360 231.458C356.009 229.872 351.743 229.097 347.45 229.178C343.606 229.119 339.781 229.735 336.15 230.998H289.84V292.757H336C339.696 294.023 343.583 294.642 347.49 294.588C351.766 294.655 356.015 293.891 360 292.338C363.571 290.913 366.756 288.67 369.3 285.787C371.897 282.778 373.838 279.26 375 275.458C376.342 271.058 376.993 266.477 376.93 261.877C377 257.291 376.349 252.722 375 248.337ZM325.74 237.998L325.69 238.048C323.073 241.064 321.111 244.592 319.93 248.407C319.006 251.331 318.419 254.351 318.18 257.407H298.18V237.998H325.74ZM298.17 285.768V264.377H318C318.143 269.525 319.284 274.595 321.36 279.307C322.434 281.649 323.838 283.825 325.53 285.768H298.17ZM365.83 275.347C364.488 278.979 362.075 282.117 358.91 284.347C356.52 285.969 353.777 286.998 350.91 287.347C349.769 287.494 348.62 287.567 347.47 287.568C344.273 287.651 341.097 287.026 338.17 285.737C337.096 285.229 336.089 284.591 335.17 283.838C332.104 281.38 329.849 278.056 328.7 274.298C327.683 271.071 327.088 267.727 326.93 264.347H347.49V257.347H327C327.42 252.254 328.59 248.217 330.51 245.237C332.883 241.571 335.517 239.147 338.41 237.968L338.76 237.828C341.543 236.749 344.496 236.177 347.48 236.138C348.632 236.139 349.781 236.226 350.92 236.398C352.157 236.584 353.378 236.869 354.57 237.248C357.03 238.051 359.284 239.386 361.17 241.158C363.438 243.374 365.151 246.094 366.17 249.097C367.565 253.199 368.219 257.517 368.1 261.847C368.19 266.45 367.42 271.028 365.83 275.347Z" fill="#FAB51C"/>
</g>
<defs>
<clipPath id="clip0_386_16">
<rect width="460" height="66" fill="white" transform="translate(32 229)"/>
</clipPath>
</defs>
</svg>
